<svg width="22" height="21" viewBox="0 0 22 21" fill="none" xmlns="http://www.w3.org/2000/svg">
<path d="M10.7155 0.0379944H2.57268C2.33697 0.0379944 2.14411 0.230852 2.14411 0.466566V8.60943C2.14411 8.84514 2.33697 9.038 2.57268 9.038H10.7155C10.9513 9.038 11.1441 8.84514 11.1441 8.60943V0.466566C11.1441 0.230852 10.9513 0.0379944 10.7155 0.0379944ZM9.32268 7.21657H3.96554V1.85942H9.32268V7.21657ZM21.4298 0.0379944H13.287C13.0513 0.0379944 12.8584 0.230852 12.8584 0.466566V8.60943C12.8584 8.84514 13.0513 9.038 13.287 9.038H21.4298C21.6655 9.038 21.8584 8.84514 21.8584 8.60943V0.466566C21.8584 0.230852 21.6655 0.0379944 21.4298 0.0379944ZM20.037 7.21657H14.6798V1.85942H20.037V7.21657ZM21.4298 10.7523H13.287C13.0513 10.7523 12.8584 10.9451 12.8584 11.1809V19.3237C12.8584 19.5594 13.0513 19.7523 13.287 19.7523H21.4298C21.6655 19.7523 21.8584 19.5594 21.8584 19.3237V11.1809C21.8584 10.9451 21.6655 10.7523 21.4298 10.7523ZM20.037 17.9309H14.6798V12.5737H20.037V17.9309ZM9.64411 15.2523H6.21554V11.8237C6.21554 11.7059 6.11911 11.6094 6.00126 11.6094H4.71554C4.59768 11.6094 4.50126 11.7059 4.50126 11.8237V15.2523H1.07268C0.954827 15.2523 0.858398 15.3487 0.858398 15.4666V16.7523C0.858398 16.8701 0.954827 16.9666 1.07268 16.9666H4.50126V20.3951C4.50126 20.513 4.59768 20.6094 4.71554 20.6094H6.00126C6.11911 20.6094 6.21554 20.513 6.21554 20.3951V16.9666H9.64411C9.76197 16.9666 9.8584 16.8701 9.8584 16.7523V15.4666C9.8584 15.3487 9.76197 15.2523 9.64411 15.2523Z" fill="#BDBDBD"/>
</svg>
