<svg width="22" height="24" viewBox="0 0 22 24" fill="none" xmlns="http://www.w3.org/2000/svg">
<path d="M10.2283 19.4588L20.3587 9.3258C20.4042 9.28026 20.4257 9.21865 20.4203 9.15705L19.7373 1.08383C19.7185 0.874903 19.5551 0.71151 19.3462 0.69276L11.273 0.012403C11.2114 0.00704581 11.1471 0.0284743 11.1042 0.07401L0.973871 10.2044C0.933992 10.2446 0.911621 10.299 0.911621 10.3557C0.911621 10.4124 0.933992 10.4668 0.973871 10.507L9.92566 19.4588C10.0087 19.5445 10.1453 19.5445 10.2283 19.4588ZM11.9051 2.00258L17.9212 2.51151L18.4301 8.52758L10.0757 16.8794L3.55066 10.357L11.9051 2.00258ZM13.5166 6.99089C13.636 7.11027 13.7777 7.20497 13.9337 7.26957C14.0897 7.33418 14.2569 7.36742 14.4258 7.36741C14.5946 7.3674 14.7618 7.33413 14.9178 7.2695C15.0738 7.20487 15.2155 7.11016 15.3349 6.99075C15.4543 6.87135 15.549 6.7296 15.6136 6.5736C15.6782 6.4176 15.7114 6.2504 15.7114 6.08155C15.7114 5.9127 15.6781 5.74551 15.6135 5.58952C15.5489 5.43352 15.4542 5.29179 15.3348 5.1724C15.2154 5.05302 15.0736 4.95832 14.9176 4.89372C14.7616 4.82911 14.5944 4.79587 14.4256 4.79588C14.2567 4.79589 14.0895 4.82916 13.9335 4.89379C13.7775 4.95842 13.6358 5.05313 13.5164 5.17254C13.397 5.29194 13.3023 5.43369 13.2377 5.58969C13.1731 5.74569 13.1399 5.91289 13.1399 6.08174C13.1399 6.25059 13.1732 6.41778 13.2378 6.57377C13.3024 6.72977 13.3971 6.8715 13.5166 6.99089ZM21.1167 12.749L20.056 11.691C20.0157 11.6511 19.9614 11.6287 19.9047 11.6287C19.848 11.6287 19.7936 11.6511 19.7533 11.691L10.0569 21.3687L3.69262 15.0204C3.65235 14.9806 3.59796 14.9582 3.54128 14.9582C3.4846 14.9582 3.43022 14.9806 3.38994 15.0204L2.32923 16.0785C2.28935 16.1187 2.26698 16.1731 2.26698 16.2298C2.26698 16.2865 2.28935 16.3409 2.32923 16.3812L8.84352 22.8847L9.90423 23.9428C9.98726 24.0258 10.1239 24.0258 10.2069 23.9428L21.1167 13.0517C21.1998 12.9687 21.1998 12.832 21.1167 12.749Z" fill="#BDBDBD"/>
</svg>
