<svg width="148" height="41" viewBox="0 0 148 41" fill="none" xmlns="http://www.w3.org/2000/svg">
	<path d="M44.79 16.26C44.99 15.84 45.25 15.53 45.57 15.33C45.91 15.11 46.27 15 46.65 15C47.21 15 47.71 15.19 48.15 15.57C48.59 15.93 48.81 16.37 48.81 16.89C48.81 17.19 48.74 17.48 48.6 17.76L43.2 28.83C43 29.27 42.7 29.61 42.3 29.85C41.9 30.07 41.47 30.18 41.01 30.18C40.55 30.18 40.12 30.07 39.72 29.85C39.32 29.61 39.01 29.27 38.79 28.83L33.39 17.76C33.27 17.48 33.21 17.21 33.21 16.95C33.21 16.41 33.44 15.95 33.9 15.57C34.38 15.19 34.91 15 35.49 15C35.91 15 36.29 15.11 36.63 15.33C36.97 15.53 37.24 15.84 37.44 16.26L41.13 24.33L44.79 16.26ZM52.6313 30.18C51.9713 30.18 51.4213 30 50.9813 29.64C50.5613 29.28 50.3513 28.75 50.3513 28.05V17.1C50.3513 16.4 50.5713 15.87 51.0113 15.51C51.4513 15.15 51.9913 14.97 52.6313 14.97C53.2713 14.97 53.8013 15.15 54.2213 15.51C54.6613 15.87 54.8813 16.4 54.8813 17.1V28.05C54.8813 28.75 54.6613 29.28 54.2213 29.64C53.8013 30 53.2713 30.18 52.6313 30.18ZM52.6313 12.57C51.8313 12.57 51.2013 12.37 50.7413 11.97C50.2813 11.55 50.0513 10.99 50.0513 10.29C50.0513 9.59 50.2813 9.04 50.7413 8.64C51.2013 8.24 51.8313 8.04 52.6313 8.04C53.4113 8.04 54.0313 8.25 54.4913 8.67C54.9713 9.07 55.2113 9.61 55.2113 10.29C55.2113 10.99 54.9813 11.55 54.5213 11.97C54.0613 12.37 53.4313 12.57 52.6313 12.57ZM66.5894 14.91C68.3494 14.91 69.6594 15.43 70.5194 16.47C71.3794 17.49 71.8094 19.04 71.8094 21.12V28.05C71.8094 28.71 71.5994 29.23 71.1794 29.61C70.7794 29.99 70.2294 30.18 69.5294 30.18C68.8294 30.18 68.2794 29.99 67.8794 29.61C67.4794 29.23 67.2794 28.71 67.2794 28.05V21.33C67.2794 20.33 67.0894 19.6 66.7094 19.14C66.3494 18.68 65.7794 18.45 64.9994 18.45C64.0594 18.45 63.2994 18.75 62.7194 19.35C62.1594 19.95 61.8794 20.75 61.8794 21.75V28.05C61.8794 28.71 61.6794 29.23 61.2794 29.61C60.8794 29.99 60.3294 30.18 59.6294 30.18C58.9294 30.18 58.3694 29.99 57.9494 29.61C57.5494 29.23 57.3494 28.71 57.3494 28.05V17.04C57.3494 16.42 57.5594 15.92 57.9794 15.54C58.4194 15.16 58.9794 14.97 59.6594 14.97C60.2794 14.97 60.7794 15.16 61.1594 15.54C61.5594 15.9 61.7594 16.37 61.7594 16.95V17.37C62.2794 16.57 62.9494 15.96 63.7694 15.54C64.6094 15.12 65.5494 14.91 66.5894 14.91ZM86.7612 8.7C87.4612 8.7 88.0212 8.89 88.4412 9.27C88.8812 9.65 89.1012 10.15 89.1012 10.77V28.05C89.1012 28.69 88.8912 29.21 88.4712 29.61C88.0712 29.99 87.5312 30.18 86.8512 30.18C86.1712 30.18 85.6212 29.99 85.2012 29.61C84.8012 29.21 84.6012 28.69 84.6012 28.05V27.81C84.1612 28.57 83.5312 29.17 82.7112 29.61C81.9112 30.03 81.0012 30.24 79.9812 30.24C78.7212 30.24 77.5912 29.92 76.5912 29.28C75.6112 28.62 74.8412 27.71 74.2812 26.55C73.7412 25.37 73.4712 24.02 73.4712 22.5C73.4712 20.98 73.7412 19.65 74.2812 18.51C74.8412 17.35 75.6112 16.46 76.5912 15.84C77.5712 15.22 78.7012 14.91 79.9812 14.91C80.9812 14.91 81.8812 15.12 82.6812 15.54C83.5012 15.96 84.1312 16.55 84.5712 17.31V10.68C84.5712 10.08 84.7712 9.6 85.1712 9.24C85.5712 8.88 86.1012 8.7 86.7612 8.7ZM81.3012 26.79C82.3612 26.79 83.1712 26.43 83.7312 25.71C84.3112 24.97 84.6012 23.92 84.6012 22.56C84.6012 21.2 84.3112 20.16 83.7312 19.44C83.1712 18.72 82.3612 18.36 81.3012 18.36C80.2412 18.36 79.4212 18.72 78.8412 19.44C78.2612 20.14 77.9712 21.16 77.9712 22.5C77.9712 23.86 78.2612 24.92 78.8412 25.68C79.4212 26.42 80.2412 26.79 81.3012 26.79ZM100.38 14.97C100.98 14.93 101.45 15.07 101.79 15.39C102.15 15.69 102.33 16.15 102.33 16.77C102.33 17.43 102.17 17.92 101.85 18.24C101.53 18.56 100.96 18.76 100.14 18.84L99.2396 18.93C98.1396 19.05 97.3396 19.41 96.8396 20.01C96.3596 20.61 96.1196 21.38 96.1196 22.32V28.05C96.1196 28.75 95.8996 29.28 95.4596 29.64C95.0396 30 94.5096 30.18 93.8696 30.18C93.2096 30.18 92.6596 30 92.2196 29.64C91.7996 29.28 91.5896 28.75 91.5896 28.05V17.04C91.5896 16.38 91.8096 15.87 92.2496 15.51C92.6896 15.15 93.2196 14.97 93.8396 14.97C94.4396 14.97 94.9396 15.15 95.3396 15.51C95.7396 15.85 95.9396 16.33 95.9396 16.95V17.76C96.2996 16.9 96.8396 16.24 97.5596 15.78C98.2996 15.32 99.0996 15.06 99.9596 15L100.38 14.97ZM104.029 30.18C103.289 30.18 102.679 29.94 102.199 29.46C101.719 28.96 101.479 28.34 101.479 27.6C101.479 26.86 101.719 26.25 102.199 25.77C102.679 25.27 103.289 25.02 104.029 25.02C104.769 25.02 105.379 25.27 105.859 25.77C106.339 26.25 106.579 26.86 106.579 27.6C106.579 28.34 106.339 28.96 105.859 29.46C105.379 29.94 104.769 30.18 104.029 30.18ZM110.942 30.18C110.282 30.18 109.732 30 109.292 29.64C108.872 29.28 108.662 28.75 108.662 28.05V10.83C108.662 10.13 108.872 9.6 109.292 9.24C109.732 8.88 110.282 8.7 110.942 8.7C111.582 8.7 112.112 8.88 112.532 9.24C112.972 9.6 113.192 10.13 113.192 10.83V28.05C113.192 28.75 112.972 29.28 112.532 29.64C112.112 30 111.582 30.18 110.942 30.18ZM122.29 14.91C124.45 14.91 126.05 15.44 127.09 16.5C128.13 17.54 128.65 19.14 128.65 21.3V28.08C128.65 28.74 128.46 29.26 128.08 29.64C127.7 30 127.17 30.18 126.49 30.18C125.85 30.18 125.33 29.99 124.93 29.61C124.55 29.21 124.36 28.7 124.36 28.08V27.87C124.06 28.61 123.56 29.19 122.86 29.61C122.16 30.03 121.34 30.24 120.4 30.24C119.4 30.24 118.49 30.04 117.67 29.64C116.87 29.24 116.23 28.68 115.75 27.96C115.29 27.24 115.06 26.44 115.06 25.56C115.06 24.48 115.33 23.63 115.87 23.01C116.43 22.39 117.32 21.94 118.54 21.66C119.76 21.38 121.43 21.24 123.55 21.24H124.33V20.7C124.33 19.86 124.14 19.25 123.76 18.87C123.4 18.49 122.79 18.3 121.93 18.3C121.07 18.3 119.83 18.6 118.21 19.2C117.75 19.42 117.36 19.53 117.04 19.53C116.6 19.53 116.25 19.38 115.99 19.08C115.73 18.76 115.6 18.35 115.6 17.85C115.6 17.45 115.69 17.12 115.87 16.86C116.05 16.6 116.34 16.36 116.74 16.14C117.44 15.76 118.29 15.46 119.29 15.24C120.31 15.02 121.31 14.91 122.29 14.91ZM121.39 27.12C122.27 27.12 122.98 26.83 123.52 26.25C124.06 25.65 124.33 24.88 124.33 23.94V23.43H123.82C122.2 23.43 121.06 23.56 120.4 23.82C119.76 24.08 119.44 24.55 119.44 25.23C119.44 25.79 119.62 26.25 119.98 26.61C120.36 26.95 120.83 27.12 121.39 27.12ZM140.157 14.91C141.437 14.91 142.567 15.22 143.547 15.84C144.527 16.46 145.287 17.35 145.827 18.51C146.387 19.65 146.667 20.98 146.667 22.5C146.667 24.02 146.387 25.37 145.827 26.55C145.287 27.71 144.517 28.62 143.517 29.28C142.537 29.92 141.417 30.24 140.157 30.24C139.137 30.24 138.217 30.03 137.397 29.61C136.577 29.17 135.947 28.57 135.507 27.81V28.05C135.507 28.69 135.307 29.21 134.907 29.61C134.507 29.99 133.967 30.18 133.287 30.18C132.607 30.18 132.057 29.99 131.637 29.61C131.237 29.21 131.037 28.69 131.037 28.05V10.77C131.037 10.15 131.247 9.65 131.667 9.27C132.107 8.89 132.677 8.7 133.377 8.7C134.037 8.7 134.567 8.88 134.967 9.24C135.367 9.6 135.567 10.08 135.567 10.68V17.25C136.007 16.51 136.627 15.94 137.427 15.54C138.247 15.12 139.157 14.91 140.157 14.91ZM138.837 26.79C139.897 26.79 140.717 26.42 141.297 25.68C141.877 24.92 142.167 23.86 142.167 22.5C142.167 21.16 141.877 20.14 141.297 19.44C140.717 18.72 139.897 18.36 138.837 18.36C137.777 18.36 136.957 18.73 136.377 19.47C135.797 20.19 135.507 21.22 135.507 22.56C135.507 23.92 135.797 24.97 136.377 25.71C136.957 26.43 137.777 26.79 138.837 26.79Z" fill="#17B978" />
	<path d="M25 8L7.40744 8L4.13141e-05 15.4074L17.5926 15.4074L25 8Z" fill="#086972" />
	<path d="M17.5925 33L17.5925 15.4074L24.9999 8.00004L24.9999 25.5926L17.5925 33Z" fill="#A7FF83" />
	<path d="M0 33L17.5926 33L25 25.5926L7.4074 25.5926L0 33Z" fill="#17B978" />
	<path d="M7.40747 8L7.40747 25.5926L7.02937e-05 33L7.18317e-05 15.4074L7.40747 8Z" fill="#17B978" />
</svg>
